<svg xmlns="http://www.w3.org/2000/svg" width="960" height="560" viewBox="0 0 960 560"><path stroke="#000" stroke-miterlimit="10" fill="none" d="M290 178.5h342M288.606 177.52L461.968 518.3M461.968 518.3l171.38-340.78M290 178.5h342"/><path stroke="#000" stroke-miterlimit="10" d="M305.203 195.755l16.38-8.425 25.828 50.214-16.38 8.426zM305.3 205.7l-.21-19.812 74.06-.785.21 19.81zM361.5 187.5h20v120h-20zM372.912 301.37l9.083 16.485-11.282 6.216-9.083-16.482zM377.858 302.38l7.732 13.837-6.92 3.867-7.73-13.837zM378.5 187.5h42v18h-42zM400.5 199.5h20v14h-20zM430.5 187.5h10v247h-10zM428.248 434.253l12.373-6.266 8.505 16.792-12.372 6.265zM440.08 302.172l-11.897-7.134 65.813-109.743 11.895 7.134zM493.5 187.5h14v5h-14zM452.027 261.393l11.298-3.7 47.17 144.037-11.3 3.7zM502.85 398.62l8.438 3.933-7.532 16.16-8.436-3.93zM518.5 187.5h14v172h-14zM540.17 316.25l12.798 7.55-20.637 34.984-12.798-7.55zM556.134 286.384l13.1 7.014-19.17 35.807-13.1-7.014zM518.5 243.5h29v14h-29zM518.5 187.5h96v12h-96zM605.738 196.737l9.89 4.575-6.236 13.485-9.89-4.575z"/><path stroke="#FF1C00" stroke-miterlimit="10" fill="none" d="M569.242 293.39L532.798 359.8M532.798 359.798l-14.86-.99M518.5 360V185M517.94 185.94l98.074-.496M616.014 185.444l-.356 15.854M615.658 201.298l-6.24 13.485M609.42 214.783l-9.893-4.575M599.527 210.208l4.58-9.903M603 199.5h-70M532.302 200.305l.496 43.44M532.798 243.746l14.86.146M547.5 244v15M546 257.5h-13M530.5 259v69M531.808 326.61l24.332-40.232M556.14 286.378l13.102 7.013M427.79 185.444l.46 248.835M428.25 434.28l8.503 16.792M436.753 451.072l12.373-6.265M449.126 444.807l-7.466-14.745M440.5 428V300M441.66 299.862l14.798-25.03M456.458 274.83l42.76 130.607M499.217 405.437l-3.898 9.352M495.32 414.79l8.436 3.93M503.756 418.72l7.532-16.163M511.288 402.557l-46.74-141.22M464.547 261.336l41.504-67.966M507.5 194v-9M506.05 185.94l-11.885-.496M494.165 185.444l-51.225 84.962M427 187.5h16M441.165 185.444l1.775 84.962M420.5 185v31M420.856 214.668l-19.812-.494M400.5 216v-10M401.044 205.753l-21.794-.496M379.25 205.257l.99 102.036M380.24 307.293l5.344 8.947M385.584 316.24l-14.862 7.85M370.722 324.09l-9.304-14.32M361.5 309V206M361.418 205.753L331 205.68M331 205.68l16.397 31.87M347.397 237.55l-16.38 8.426M331.016 245.976l-26.867-49.218M304.15 196.758l.93-10.89M305.08 185.867l115.776.073"/><path fill="none" d="M99.258 57.752h730.578V177.52H99.258z"/><text transform="translate(100.568 96.043)"><tspan x="0" y="0" fill="#f00" font-family="'CopperplateGothic-Bold'" font-size="70">Tau Kappa Epsilon</tspan><tspan x="38.304" y="57.6" fill="#f00" font-family="'CopperplateGothic-Bold'" font-size="48">Omicron Alpha Chapter</tspan></text><path fill="#f00" d="M467.302 531.433l-8.967-4.427L635.393 168.37l8.967 4.426zM467.327 525.427l-8.89 4.577-183.06-355.597 8.892-4.577zM641.963 167.655l.026 10-361.62.94-.027-10zM462.403 525.996l5.44 5.44-4.006 4.007-5.44-5.44z"/><path fill="#f00" stroke="#FF151B" stroke-miterlimit="10" d="M638.5 168.5h5v6h-5z"/><path fill="#f00" d="M279.753 168.338l6.108 6.108-5.39 5.39-6.11-6.107z"/></svg>