<svg xmlns="http://www.w3.org/2000/svg" width="512" height="512" viewBox="0 0 512 512"><path d="M426.67 0H85.344C38.406 0 0 38.405 0 85.345v341.31C0 473.626 38.406 512 85.343 512H426.67c46.94 0 85.33-38.375 85.33-85.345V85.345C512 38.405 473.61 0 426.67 0zm-7.644 170.917c.164 3.67.245 7.364.245 11.074 0 113.107-84.607 243.535-239.33 243.535-47.5 0-91.716-14.175-128.942-38.46 6.58.794 13.276 1.198 20.065 1.198 39.41 0 75.68-13.686 104.467-36.642-36.808-.69-67.872-25.437-78.577-59.44 5.137 1 10.406 1.537 15.826 1.537 7.67 0 15.102-1.048 22.16-3.004-38.48-7.866-67.476-42.458-67.476-83.928 0-.36 0-.72.008-1.076 11.34 6.41 24.312 10.26 38.1 10.704-22.57-15.35-37.42-41.546-37.42-71.244 0-15.685 4.146-30.39 11.388-43.03 41.487 51.786 103.468 85.86 173.377 89.432-1.435-6.266-2.18-12.798-2.18-19.507 0-47.27 37.665-85.59 84.116-85.59 24.195 0 46.06 10.393 61.4 27.03 19.16-3.84 37.163-10.96 53.417-20.772-6.28 19.988-19.617 36.76-36.982 47.355 17.013-2.07 33.226-6.67 48.31-13.477-11.273 17.164-25.535 32.24-41.972 44.307z"/></svg>