<svg xmlns="http://www.w3.org/2000/svg" width="960" height="560" viewBox="0 0 960 560"><path fill="#666" d="M240 90h395v392H240z"/><path fill="#fff" d="M594.662 560.438l-156.326-78.425 197.2-393.08 156.326 78.424zM438.575 482.843L281.883 560.55 86.485 166.545l156.692-77.707z"/><path stroke="#000" stroke-miterlimit="10" fill="none" d="M242.363 88.5l196.135 392.27M634.634 88.5L438.498 480.77M243 88.5h392M256 99.5h363M255.438 98.96l183.06 359.845M438.498 458.805L619.466 98.96M256 99.5h363"/><path stroke="#000" stroke-miterlimit="10" d="M272.93 118.235l17.296-8.897 27.272 53.02-17.296 8.895zM273.05 128.706l-.224-20.92 78.204-.837.223 20.92zM332.5 108.5h20v128h-20zM344.482 229.75l9.592 17.406-11.91 6.563-9.593-17.407zM349.67 230.81l8.165 14.61-7.306 4.084-8.165-14.61zM350.5 108.5h44v20h-44zM374.5 123.5h20v14h-20zM403.5 108.5h13v261h-13zM402.902 370.113l13.066-6.614 8.977 17.73-13.065 6.616zM415.373 230.624l-12.56-7.53 69.48-115.883 12.56 7.53zM471.5 108.5h14v7h-14zM428.057 187.514l11.932-3.907 49.805 152.11-11.93 3.907zM481.665 332.404l8.91 4.15-7.953 17.067-8.91-4.15zM498.5 108.5h15v182h-15zM521.094 245.442l13.514 7.972-21.792 36.94-13.514-7.972zM537.92 213.926l13.834 7.406-20.244 37.81-13.834-7.405zM498.5 168.5h31v15h-31zM498.5 108.5h102v15h-102zM590.322 119.204l10.444 4.83-6.586 14.242-10.444-4.83z"/><path stroke="#000" stroke-miterlimit="10" fill="none" d="M267 137.5h-80M187.444 137.665l.523 51.256M187 188.5h104M322 250.5h-79M242.885 249.593l.524 51.257M243 301.5h104M378 358.5h-80M297.28 359.43l.523 51.256M298 409.5h104M586 188.5h104M690 137.5h-80M690.598 137.665l.523 51.256M528 301.5h104M632 250.5h-77M632.02 249.593l.52 51.257M578.694 359.455l-79.5-.072M579.683 410.754l-.456-51.258M475.088 410.64l104.605.094"/><path stroke="#FF1C00" stroke-miterlimit="10" fill="none" d="M551.772 221.314l-38.48 70.122M513.29 291.436l-15.69-1.046M498.5 291V107M497.6 107.853l103.56-.524M601.16 107.33l-.374 16.738M600.786 124.068l-6.59 14.24M594.197 138.31l-10.444-4.83M583.753 133.48l4.84-10.46M588 123.5h-75M512.77 123.02l.52 45.872M513.29 168.892l15.69.154M529.5 169v16M528 183.5h-15M511.5 185v71M512.245 256.392l25.694-42.484M537.94 213.908l13.832 7.406M402.41 107.33l.485 262.755M402.895 370.085l8.978 17.73M411.873 387.816l13.065-6.615M424.938 381.2l-7.884-15.57M416.5 364V229M417.054 228.15l15.625-26.434M432.68 201.716l45.15 137.91M477.83 339.627l-4.115 9.877M473.715 349.504l8.91 4.15M482.625 353.655l7.952-17.067M490.577 336.588l-49.355-149.12M441.222 187.467l43.826-71.77M485.5 116v-9M485.048 107.853l-12.552-.524M472.496 107.33l-54.09 89.714M402 108.5h16M416.53 107.33l1.875 89.714M394.5 107v31M395.086 138.187l-20.92-.522M374.5 138v-9M374.166 128.773l-23.014-.523M351.152 128.25l1.046 107.744M352.198 235.994l5.643 9.448M357.84 245.442l-15.693 8.29M342.147 253.733l-9.824-15.123M332.5 238V129M332.323 128.773l-32.118-.08M300.205 128.694l17.312 33.655M317.517 162.35l-17.297 8.897M300.22 171.247l-28.37-51.973M271.85 119.274l.983-11.5M272.833 107.775l122.253.078"/></svg>