<svg xmlns="http://www.w3.org/2000/svg" width="26" height="26" viewBox="0 0 26 26"><path fill="none" d="M0 0h26v26H0z"/><path d="M20 7c-.55 0-1-.45-1-1V4c0-.55.45-1 1-1h2c.55 0 1 .45 1 1v2c0 .55-.45 1-1 1h-2zM13 9.188c-.726 0-1.396.213-1.973.563.18-.055.367-.092.564-.092 1.07 0 1.934.865 1.934 1.934 0 1.066-.865 1.933-1.933 1.933-1.067 0-1.932-.866-1.932-1.933 0-.2.04-.386.094-.565-.352.577-.564 1.247-.564 1.973 0 2.107 1.705 3.813 3.813 3.813 2.106 0 3.814-1.705 3.814-3.813S15.104 9.188 13 9.188zM13 7c3.313 0 6 2.686 6 6s-2.688 6-6 6c-3.313 0-6-2.686-6-6s2.687-6 6-6m0-2c-4.41 0-8 3.59-8 8s3.59 8 8 8 8-3.59 8-8-3.59-8-8-8zM21.125 0H4.875C2.182 0 0 2.182 0 4.875v16.25C0 23.818 2.182 26 4.875 26h16.25C23.818 26 26 23.818 26 21.125V4.875C26 2.182 23.818 0 21.125 0zM24 9h-6.537C18.416 10.063 19 11.46 19 13c0 3.314-2.688 6-6 6-3.313 0-6-2.686-6-6 0-1.54.584-2.938 1.537-4H2V4.875C2 3.29 3.29 2 4.875 2h16.25C22.71 2 24 3.29 24 4.875V9z"/></svg>