<?xml version="1.0" encoding="utf-8"?>
<!-- Generator: Adobe Illustrator 16.0.0, SVG Export Plug-In . SVG Version: 6.00 Build 0)  -->
<!DOCTYPE svg PUBLIC "-//W3C//DTD SVG 1.1//EN" "http://www.w3.org/Graphics/SVG/1.1/DTD/svg11.dtd">
<svg version="1.1" id="Layer_1" xmlns="http://www.w3.org/2000/svg" xmlns:xlink="http://www.w3.org/1999/xlink" x="0px" y="0px"
	 width="960px" height="560px" viewBox="0 0 960 560" enable-background="new 0 0 960 560" xml:space="preserve">
<rect x="240" y="90" fill="#666666" width="395" height="392"/>
<rect x="527.613" y="104.792" transform="matrix(-0.8938 -0.4484 0.4484 -0.8938 1019.2537 890.6826)" fill="#FFFFFF" width="174.9" height="439.786"/>
<rect x="175.093" y="104.792" transform="matrix(-0.8959 0.4443 -0.4443 -0.8959 641.9996 498.9322)" fill="#FFFFFF" width="174.899" height="439.787"/>
<line fill="none" stroke="#000000" stroke-miterlimit="10" x1="242.363" y1="88.5" x2="438.498" y2="480.771"/>
<line fill="none" stroke="#000000" stroke-miterlimit="10" x1="634.634" y1="88.5" x2="438.498" y2="480.771"/>
<line fill="none" stroke="#000000" stroke-miterlimit="10" x1="243" y1="88.5" x2="635" y2="88.5"/>
<line fill="none" stroke="#000000" stroke-miterlimit="10" x1="256" y1="99.5" x2="619" y2="99.5"/>
<line fill="none" stroke="#000000" stroke-miterlimit="10" x1="255.438" y1="98.961" x2="438.498" y2="458.805"/>
<line fill="none" stroke="#000000" stroke-miterlimit="10" x1="438.498" y1="458.805" x2="619.466" y2="98.961"/>
<line fill="none" stroke="#000000" stroke-miterlimit="10" x1="256" y1="99.5" x2="619" y2="99.5"/>
<rect x="285.506" y="110.475" transform="matrix(0.8892 -0.4574 0.4574 0.8892 -31.4733 150.591)" stroke="#000000" stroke-miterlimit="10" width="19.451" height="59.625"/>
<rect x="301.587" y="78.711" transform="matrix(-0.0107 -0.9999 0.9999 -0.0107 197.5741 431.1053)" stroke="#000000" stroke-miterlimit="10" width="20.922" height="78.211"/>
<rect x="332.5" y="108.5" stroke="#000000" stroke-miterlimit="10" width="20" height="128"/>
<rect x="333.37" y="234.947" transform="matrix(0.4826 0.8758 -0.8758 0.4826 389.3646 -175.6017)" stroke="#000000" stroke-miterlimit="10" width="19.875" height="13.6"/>
<rect x="341.738" y="235.994" transform="matrix(0.4878 0.8729 -0.8729 0.4878 388.9696 -182.6095)" stroke="#000000" stroke-miterlimit="10" width="16.737" height="8.369"/>
<rect x="350.5" y="108.5" stroke="#000000" stroke-miterlimit="10" width="44" height="20"/>
<rect x="374.5" y="123.5" stroke="#000000" stroke-miterlimit="10" width="20" height="14"/>
<rect x="403.5" y="108.5" stroke="#000000" stroke-miterlimit="10" width="13" height="261"/>
<rect x="406.594" y="365.706" transform="matrix(0.8922 -0.4517 0.4517 0.8922 -125.0502 227.4891)" stroke="#000000" stroke-miterlimit="10" width="14.644" height="19.875"/>
<rect x="436.497" y="101.33" transform="matrix(-0.8576 -0.5142 0.5142 -0.8576 737.6091 541.9711)" stroke="#000000" stroke-miterlimit="10" width="14.645" height="135.124"/>
<rect x="471.5" y="108.5" stroke="#000000" stroke-miterlimit="10" width="14" height="7"/>
<rect x="452.619" y="181.599" transform="matrix(0.9504 -0.3112 0.3112 0.9504 -58.6255 155.7773)" stroke="#000000" stroke-miterlimit="10" width="12.554" height="160.048"/>
<rect x="477.231" y="333.632" transform="matrix(0.9064 0.4223 -0.4223 0.9064 189.9952 -171.5347)" stroke="#000000" stroke-miterlimit="10" width="9.829" height="18.829"/>
<rect x="498.5" y="108.5" stroke="#000000" stroke-miterlimit="10" width="15" height="182"/>
<rect x="509.107" y="246.454" transform="matrix(0.8613 0.5081 -0.5081 0.8613 207.8231 -225.5063)" stroke="#000000" stroke-miterlimit="10" width="15.691" height="42.889"/>
<rect x="526.89" y="215.073" transform="matrix(0.8816 0.472 -0.472 0.8816 174.9281 -224.3746)" stroke="#000000" stroke-miterlimit="10" width="15.692" height="42.889"/>
<rect x="498.5" y="168.5" stroke="#000000" stroke-miterlimit="10" width="31" height="15"/>
<rect x="498.5" y="108.5" stroke="#000000" stroke-miterlimit="10" width="102" height="15"/>
<rect x="586.516" y="120.927" transform="matrix(0.9076 0.4197 -0.4197 0.9076 108.7532 -236.7098)" stroke="#000000" stroke-miterlimit="10" width="11.507" height="15.692"/>
<line fill="none" stroke="#000000" stroke-miterlimit="10" x1="267" y1="137.5" x2="187" y2="137.5"/>
<line fill="none" stroke="#000000" stroke-miterlimit="10" x1="187.444" y1="137.665" x2="187.967" y2="188.921"/>
<line fill="none" stroke="#000000" stroke-miterlimit="10" x1="187" y1="188.5" x2="291" y2="188.5"/>
<line fill="none" stroke="#000000" stroke-miterlimit="10" x1="322" y1="250.5" x2="243" y2="250.5"/>
<line fill="none" stroke="#000000" stroke-miterlimit="10" x1="242.885" y1="249.593" x2="243.409" y2="300.85"/>
<line fill="none" stroke="#000000" stroke-miterlimit="10" x1="243" y1="301.5" x2="347" y2="301.5"/>
<line fill="none" stroke="#000000" stroke-miterlimit="10" x1="378" y1="358.5" x2="298" y2="358.5"/>
<line fill="none" stroke="#000000" stroke-miterlimit="10" x1="297.28" y1="359.43" x2="297.803" y2="410.686"/>
<line fill="none" stroke="#000000" stroke-miterlimit="10" x1="298" y1="409.5" x2="402" y2="409.5"/>
<line fill="none" stroke="#000000" stroke-miterlimit="10" x1="586" y1="188.5" x2="690" y2="188.5"/>
<line fill="none" stroke="#000000" stroke-miterlimit="10" x1="690" y1="137.5" x2="610" y2="137.5"/>
<line fill="none" stroke="#000000" stroke-miterlimit="10" x1="690.598" y1="137.665" x2="691.121" y2="188.921"/>
<line fill="none" stroke="#000000" stroke-miterlimit="10" x1="528" y1="301.5" x2="632" y2="301.5"/>
<line fill="none" stroke="#000000" stroke-miterlimit="10" x1="632" y1="250.5" x2="555" y2="250.5"/>
<line fill="none" stroke="#000000" stroke-miterlimit="10" x1="632.02" y1="249.593" x2="632.541" y2="300.85"/>
<line fill="none" stroke="#000000" stroke-miterlimit="10" x1="578.694" y1="359.455" x2="499.194" y2="359.383"/>
<line fill="none" stroke="#000000" stroke-miterlimit="10" x1="579.683" y1="410.754" x2="579.227" y2="359.496"/>
<line fill="none" stroke="#000000" stroke-miterlimit="10" x1="475.088" y1="410.641" x2="579.693" y2="410.734"/>
<line fill="none" stroke="#FF1C00" stroke-miterlimit="10" x1="551.772" y1="221.314" x2="513.291" y2="291.436"/>
<line fill="none" stroke="#FF1C00" stroke-miterlimit="10" x1="513.291" y1="291.436" x2="497.601" y2="290.39"/>
<line fill="none" stroke="#FF1C00" stroke-miterlimit="10" x1="498.5" y1="291" x2="498.5" y2="107"/>
<line fill="none" stroke="#FF1C00" stroke-miterlimit="10" x1="497.601" y1="107.853" x2="601.16" y2="107.329"/>
<line fill="none" stroke="#FF1C00" stroke-miterlimit="10" x1="601.16" y1="107.329" x2="600.786" y2="124.068"/>
<line fill="none" stroke="#FF1C00" stroke-miterlimit="10" x1="600.786" y1="124.068" x2="594.197" y2="138.309"/>
<line fill="none" stroke="#FF1C00" stroke-miterlimit="10" x1="594.197" y1="138.309" x2="583.753" y2="133.479"/>
<line fill="none" stroke="#FF1C00" stroke-miterlimit="10" x1="583.753" y1="133.479" x2="588.592" y2="123.02"/>
<line fill="none" stroke="#FF1C00" stroke-miterlimit="10" x1="588" y1="123.5" x2="513" y2="123.5"/>
<line fill="none" stroke="#FF1C00" stroke-miterlimit="10" x1="512.769" y1="123.02" x2="513.291" y2="168.892"/>
<line fill="none" stroke="#FF1C00" stroke-miterlimit="10" x1="513.291" y1="168.892" x2="528.981" y2="169.046"/>
<line fill="none" stroke="#FF1C00" stroke-miterlimit="10" x1="529.5" y1="169" x2="529.5" y2="185"/>
<line fill="none" stroke="#FF1C00" stroke-miterlimit="10" x1="528" y1="183.5" x2="513" y2="183.5"/>
<line fill="none" stroke="#FF1C00" stroke-miterlimit="10" x1="511.5" y1="185" x2="511.5" y2="256"/>
<line fill="none" stroke="#FF1C00" stroke-miterlimit="10" x1="512.245" y1="256.392" x2="537.939" y2="213.908"/>
<line fill="none" stroke="#FF1C00" stroke-miterlimit="10" x1="537.939" y1="213.908" x2="551.772" y2="221.314"/>
<line fill="none" stroke="#FF1C00" stroke-miterlimit="10" x1="402.409" y1="107.329" x2="402.895" y2="370.085"/>
<line fill="none" stroke="#FF1C00" stroke-miterlimit="10" x1="402.895" y1="370.085" x2="411.873" y2="387.816"/>
<line fill="none" stroke="#FF1C00" stroke-miterlimit="10" x1="411.873" y1="387.816" x2="424.938" y2="381.201"/>
<line fill="none" stroke="#FF1C00" stroke-miterlimit="10" x1="424.938" y1="381.201" x2="417.054" y2="365.631"/>
<line fill="none" stroke="#FF1C00" stroke-miterlimit="10" x1="416.5" y1="364" x2="416.5" y2="229"/>
<line fill="none" stroke="#FF1C00" stroke-miterlimit="10" x1="417.054" y1="228.149" x2="432.679" y2="201.716"/>
<line fill="none" stroke="#FF1C00" stroke-miterlimit="10" x1="432.679" y1="201.716" x2="477.83" y2="339.627"/>
<line fill="none" stroke="#FF1C00" stroke-miterlimit="10" x1="477.83" y1="339.627" x2="473.715" y2="349.504"/>
<line fill="none" stroke="#FF1C00" stroke-miterlimit="10" x1="473.715" y1="349.504" x2="482.625" y2="353.655"/>
<line fill="none" stroke="#FF1C00" stroke-miterlimit="10" x1="482.625" y1="353.655" x2="490.577" y2="336.588"/>
<line fill="none" stroke="#FF1C00" stroke-miterlimit="10" x1="490.577" y1="336.588" x2="441.222" y2="187.467"/>
<line fill="none" stroke="#FF1C00" stroke-miterlimit="10" x1="441.222" y1="187.467" x2="485.048" y2="115.697"/>
<line fill="none" stroke="#FF1C00" stroke-miterlimit="10" x1="485.5" y1="116" x2="485.5" y2="107"/>
<line fill="none" stroke="#FF1C00" stroke-miterlimit="10" x1="485.048" y1="107.853" x2="472.496" y2="107.329"/>
<line fill="none" stroke="#FF1C00" stroke-miterlimit="10" x1="472.496" y1="107.329" x2="418.405" y2="197.044"/>
<line fill="none" stroke="#FF1C00" stroke-miterlimit="10" x1="402" y1="108.5" x2="418" y2="108.5"/>
<line fill="none" stroke="#FF1C00" stroke-miterlimit="10" x1="416.53" y1="107.329" x2="418.405" y2="197.044"/>
<line fill="none" stroke="#FF1C00" stroke-miterlimit="10" x1="394.5" y1="107" x2="394.5" y2="138"/>
<line fill="none" stroke="#FF1C00" stroke-miterlimit="10" x1="395.086" y1="138.187" x2="374.166" y2="137.665"/>
<line fill="none" stroke="#FF1C00" stroke-miterlimit="10" x1="374.5" y1="138" x2="374.5" y2="129"/>
<line fill="none" stroke="#FF1C00" stroke-miterlimit="10" x1="374.166" y1="128.773" x2="351.152" y2="128.25"/>
<line fill="none" stroke="#FF1C00" stroke-miterlimit="10" x1="351.152" y1="128.25" x2="352.198" y2="235.994"/>
<line fill="none" stroke="#FF1C00" stroke-miterlimit="10" x1="352.198" y1="235.994" x2="357.841" y2="245.442"/>
<line fill="none" stroke="#FF1C00" stroke-miterlimit="10" x1="357.841" y1="245.442" x2="342.147" y2="253.733"/>
<line fill="none" stroke="#FF1C00" stroke-miterlimit="10" x1="342.147" y1="253.733" x2="332.323" y2="238.61"/>
<line fill="none" stroke="#FF1C00" stroke-miterlimit="10" x1="332.5" y1="238" x2="332.5" y2="129"/>
<line fill="none" stroke="#FF1C00" stroke-miterlimit="10" x1="332.323" y1="128.773" x2="300.205" y2="128.694"/>
<line fill="none" stroke="#FF1C00" stroke-miterlimit="10" x1="300.205" y1="128.694" x2="317.517" y2="162.349"/>
<line fill="none" stroke="#FF1C00" stroke-miterlimit="10" x1="317.517" y1="162.349" x2="300.22" y2="171.247"/>
<line fill="none" stroke="#FF1C00" stroke-miterlimit="10" x1="300.22" y1="171.247" x2="271.851" y2="119.274"/>
<line fill="none" stroke="#FF1C00" stroke-miterlimit="10" x1="271.851" y1="119.274" x2="272.833" y2="107.775"/>
<line fill="none" stroke="#FF1C00" stroke-miterlimit="10" x1="272.833" y1="107.775" x2="395.086" y2="107.853"/>
</svg>
