<?xml version="1.0" encoding="utf-8"?>
<!-- Generator: Adobe Illustrator 16.0.0, SVG Export Plug-In . SVG Version: 6.00 Build 0)  -->
<!DOCTYPE svg PUBLIC "-//W3C//DTD SVG 1.1//EN" "http://www.w3.org/Graphics/SVG/1.1/DTD/svg11.dtd">
<svg version="1.1" id="Layer_1" xmlns="http://www.w3.org/2000/svg" xmlns:xlink="http://www.w3.org/1999/xlink" x="0px" y="0px"
	 width="960px" height="560px" viewBox="0 0 960 560" enable-background="new 0 0 960 560" xml:space="preserve">
<line fill="none" stroke="#000000" stroke-miterlimit="10" x1="276.224" y1="167.613" x2="461.968" y2="539.102"/>
<line fill="none" stroke="#000000" stroke-miterlimit="10" x1="647.714" y1="167.613" x2="461.968" y2="539.102"/>
<line fill="none" stroke="#000000" stroke-miterlimit="10" x1="277" y1="167.5" x2="649" y2="167.5"/>
<line fill="none" stroke="#000000" stroke-miterlimit="10" x1="290" y1="178.5" x2="632" y2="178.5"/>
<line fill="none" stroke="#000000" stroke-miterlimit="10" x1="288.606" y1="177.52" x2="461.968" y2="518.299"/>
<line fill="none" stroke="#000000" stroke-miterlimit="10" x1="461.968" y1="518.299" x2="633.348" y2="177.52"/>
<line fill="none" stroke="#000000" stroke-miterlimit="10" x1="290" y1="178.5" x2="632" y2="178.5"/>
<rect x="317.082" y="188.425" transform="matrix(0.8893 -0.4574 0.4574 0.8893 -62.9641 173.2224)" stroke="#000000" stroke-miterlimit="10" width="18.42" height="56.465"/>
<rect x="332.311" y="158.344" transform="matrix(-0.0106 -0.9999 0.9999 -0.0106 150.4948 539.6549)" stroke="#000000" stroke-miterlimit="10" width="19.813" height="74.067"/>
<rect x="361.5" y="187.5" stroke="#000000" stroke-miterlimit="10" width="20" height="120"/>
<rect x="362.41" y="306.3" transform="matrix(0.4826 0.8758 -0.8758 0.4826 466.27 -163.8477)" stroke="#000000" stroke-miterlimit="10" width="18.821" height="12.881"/>
<rect x="370.334" y="307.292" transform="matrix(0.4878 0.8729 -0.8729 0.4878 465.4438 -170.7805)" stroke="#000000" stroke-miterlimit="10" width="15.851" height="7.926"/>
<rect x="378.5" y="187.5" stroke="#000000" stroke-miterlimit="10" width="42" height="18"/>
<rect x="400.5" y="199.5" stroke="#000000" stroke-miterlimit="10" width="20" height="14"/>
<rect x="430.5" y="187.5" stroke="#000000" stroke-miterlimit="10" width="10" height="247"/>
<rect x="431.754" y="430.132" transform="matrix(0.8921 -0.4518 0.4518 0.8921 -151.2531 245.5984)" stroke="#000000" stroke-miterlimit="10" width="13.869" height="18.823"/>
<rect x="460.072" y="179.763" transform="matrix(-0.8576 -0.5143 0.5143 -0.8576 742.1846 692.9515)" stroke="#000000" stroke-miterlimit="10" width="13.871" height="127.965"/>
<rect x="493.5" y="187.5" stroke="#000000" stroke-miterlimit="10" width="14" height="5"/>
<rect x="475.341" y="255.779" transform="matrix(0.9503 -0.3112 0.3112 0.9503 -79.2877 166.2525)" stroke="#000000" stroke-miterlimit="10" width="11.889" height="151.57"/>
<rect x="498.649" y="399.759" transform="matrix(0.9064 0.4224 -0.4224 0.9064 219.7337 -174.3498)" stroke="#000000" stroke-miterlimit="10" width="9.308" height="17.83"/>
<rect x="518.5" y="187.5" stroke="#000000" stroke-miterlimit="10" width="14" height="172"/>
<rect x="528.836" y="317.199" transform="matrix(0.8613 0.5081 -0.5081 0.8613 245.8517 -225.6548)" stroke="#000000" stroke-miterlimit="10" width="14.86" height="40.617"/>
<rect x="545.677" y="287.481" transform="matrix(0.8816 0.472 -0.472 0.8816 210.7564 -224.6183)" stroke="#000000" stroke-miterlimit="10" width="14.86" height="40.615"/>
<rect x="518.5" y="243.5" stroke="#000000" stroke-miterlimit="10" width="29" height="14"/>
<rect x="518.5" y="187.5" stroke="#000000" stroke-miterlimit="10" width="96" height="12"/>
<rect x="602.143" y="198.324" transform="matrix(0.9076 0.4198 -0.4198 0.9076 142.4897 -236.0414)" stroke="#000000" stroke-miterlimit="10" width="10.898" height="14.858"/>
<line fill="none" stroke="#FF1C00" stroke-miterlimit="10" x1="569.242" y1="293.391" x2="532.798" y2="359.798"/>
<line fill="none" stroke="#FF1C00" stroke-miterlimit="10" x1="532.798" y1="359.798" x2="517.939" y2="358.808"/>
<line fill="none" stroke="#FF1C00" stroke-miterlimit="10" x1="518.5" y1="360" x2="518.5" y2="185"/>
<line fill="none" stroke="#FF1C00" stroke-miterlimit="10" x1="517.939" y1="185.94" x2="616.014" y2="185.444"/>
<line fill="none" stroke="#FF1C00" stroke-miterlimit="10" x1="616.014" y1="185.444" x2="615.658" y2="201.298"/>
<line fill="none" stroke="#FF1C00" stroke-miterlimit="10" x1="615.658" y1="201.298" x2="609.419" y2="214.783"/>
<line fill="none" stroke="#FF1C00" stroke-miterlimit="10" x1="609.419" y1="214.783" x2="599.527" y2="210.208"/>
<line fill="none" stroke="#FF1C00" stroke-miterlimit="10" x1="599.527" y1="210.208" x2="604.108" y2="200.305"/>
<line fill="none" stroke="#FF1C00" stroke-miterlimit="10" x1="603" y1="199.5" x2="533" y2="199.5"/>
<line fill="none" stroke="#FF1C00" stroke-miterlimit="10" x1="532.302" y1="200.305" x2="532.798" y2="243.746"/>
<line fill="none" stroke="#FF1C00" stroke-miterlimit="10" x1="532.798" y1="243.746" x2="547.658" y2="243.892"/>
<line fill="none" stroke="#FF1C00" stroke-miterlimit="10" x1="547.5" y1="244" x2="547.5" y2="259"/>
<line fill="none" stroke="#FF1C00" stroke-miterlimit="10" x1="546" y1="257.5" x2="533" y2="257.5"/>
<line fill="none" stroke="#FF1C00" stroke-miterlimit="10" x1="530.5" y1="259" x2="530.5" y2="328"/>
<line fill="none" stroke="#FF1C00" stroke-miterlimit="10" x1="531.808" y1="326.611" x2="556.14" y2="286.378"/>
<line fill="none" stroke="#FF1C00" stroke-miterlimit="10" x1="556.14" y1="286.378" x2="569.242" y2="293.391"/>
<line fill="none" stroke="#FF1C00" stroke-miterlimit="10" x1="427.791" y1="185.444" x2="428.251" y2="434.279"/>
<line fill="none" stroke="#FF1C00" stroke-miterlimit="10" x1="428.251" y1="434.279" x2="436.753" y2="451.072"/>
<line fill="none" stroke="#FF1C00" stroke-miterlimit="10" x1="436.753" y1="451.072" x2="449.126" y2="444.807"/>
<line fill="none" stroke="#FF1C00" stroke-miterlimit="10" x1="449.126" y1="444.807" x2="441.66" y2="430.062"/>
<line fill="none" stroke="#FF1C00" stroke-miterlimit="10" x1="440.5" y1="428" x2="440.5" y2="300"/>
<line fill="none" stroke="#FF1C00" stroke-miterlimit="10" x1="441.66" y1="299.862" x2="456.458" y2="274.831"/>
<line fill="none" stroke="#FF1C00" stroke-miterlimit="10" x1="456.458" y1="274.831" x2="499.217" y2="405.437"/>
<line fill="none" stroke="#FF1C00" stroke-miterlimit="10" x1="499.217" y1="405.437" x2="495.319" y2="414.789"/>
<line fill="none" stroke="#FF1C00" stroke-miterlimit="10" x1="495.319" y1="414.789" x2="503.756" y2="418.721"/>
<line fill="none" stroke="#FF1C00" stroke-miterlimit="10" x1="503.756" y1="418.721" x2="511.288" y2="402.557"/>
<line fill="none" stroke="#FF1C00" stroke-miterlimit="10" x1="511.288" y1="402.557" x2="464.547" y2="261.336"/>
<line fill="none" stroke="#FF1C00" stroke-miterlimit="10" x1="464.547" y1="261.336" x2="506.051" y2="193.37"/>
<line fill="none" stroke="#FF1C00" stroke-miterlimit="10" x1="507.5" y1="194" x2="507.5" y2="185"/>
<line fill="none" stroke="#FF1C00" stroke-miterlimit="10" x1="506.051" y1="185.94" x2="494.165" y2="185.444"/>
<line fill="none" stroke="#FF1C00" stroke-miterlimit="10" x1="494.165" y1="185.444" x2="442.94" y2="270.406"/>
<line fill="none" stroke="#FF1C00" stroke-miterlimit="10" x1="427" y1="187.5" x2="443" y2="187.5"/>
<line fill="none" stroke="#FF1C00" stroke-miterlimit="10" x1="441.165" y1="185.444" x2="442.94" y2="270.406"/>
<line fill="none" stroke="#FF1C00" stroke-miterlimit="10" x1="420.5" y1="185" x2="420.5" y2="216"/>
<line fill="none" stroke="#FF1C00" stroke-miterlimit="10" x1="420.856" y1="214.668" x2="401.044" y2="214.174"/>
<line fill="none" stroke="#FF1C00" stroke-miterlimit="10" x1="400.5" y1="216" x2="400.5" y2="206"/>
<line fill="none" stroke="#FF1C00" stroke-miterlimit="10" x1="401.044" y1="205.753" x2="379.25" y2="205.257"/>
<line fill="none" stroke="#FF1C00" stroke-miterlimit="10" x1="379.25" y1="205.257" x2="380.24" y2="307.293"/>
<line fill="none" stroke="#FF1C00" stroke-miterlimit="10" x1="380.24" y1="307.293" x2="385.584" y2="316.24"/>
<line fill="none" stroke="#FF1C00" stroke-miterlimit="10" x1="385.584" y1="316.24" x2="370.722" y2="324.091"/>
<line fill="none" stroke="#FF1C00" stroke-miterlimit="10" x1="370.722" y1="324.091" x2="361.418" y2="309.771"/>
<line fill="none" stroke="#FF1C00" stroke-miterlimit="10" x1="361.5" y1="309" x2="361.5" y2="206"/>
<line fill="none" stroke="#FF1C00" stroke-miterlimit="10" x1="361.418" y1="205.753" x2="331.001" y2="205.679"/>
<line fill="none" stroke="#FF1C00" stroke-miterlimit="10" x1="331.001" y1="205.679" x2="347.397" y2="237.551"/>
<line fill="none" stroke="#FF1C00" stroke-miterlimit="10" x1="347.397" y1="237.551" x2="331.016" y2="245.976"/>
<line fill="none" stroke="#FF1C00" stroke-miterlimit="10" x1="331.016" y1="245.976" x2="304.149" y2="196.758"/>
<line fill="none" stroke="#FF1C00" stroke-miterlimit="10" x1="304.149" y1="196.758" x2="305.08" y2="185.867"/>
<line fill="none" stroke="#FF1C00" stroke-miterlimit="10" x1="305.08" y1="185.867" x2="420.856" y2="185.94"/>
<rect x="99.258" y="57.752" fill="none" width="730.578" height="119.767"/>
<text transform="matrix(1 0 0 1 100.5679 96.0425)"><tspan x="0" y="0" fill="#FF0000" font-family="'CopperplateGothic-Bold'" font-size="70">Tau Kappa Epsilon</tspan><tspan x="38.304" y="57.6" fill="#FF0000" font-family="'CopperplateGothic-Bold'" font-size="48">Omicron Alpha Chapter</tspan></text>
</svg>
